<svg version="1.1" id="Layer_1" xmlns="http://www.w3.org/2000/svg" xmlns:xlink="http://www.w3.org/1999/xlink" x="0px" y="0px"
	 width="100%" viewBox="0 0 1024 768" enable-background="new 0 0 1024 768" xml:space="preserve">
<path fill="#000000" opacity="1.000000" stroke="none" 
	d="
M460.820343,391.536743 
	C463.167236,400.918915 463.003418,410.091278 462.992645,419.247742 
	C462.968964,439.396729 461.994873,459.542969 462.946259,479.695984 
	C463.272308,486.602295 462.126282,493.829132 469.284882,499.306763 
	C454.344666,499.306763 440.579803,499.306763 426.814941,499.306763 
	C426.519806,499.006897 426.224670,498.707001 425.929565,498.407135 
	C433.951324,492.376801 431.726959,483.983368 431.806458,476.234772 
	C432.016663,455.741699 431.987030,435.246063 432.012939,414.751373 
	C432.016937,411.592743 431.941956,408.433746 431.161011,405.323242 
	C428.809662,395.957855 423.509857,389.287933 413.663940,387.640045 
	C401.891022,385.669647 391.973938,389.374603 384.393951,398.801666 
	C377.344971,407.568329 376.633240,418.091980 376.492767,428.623779 
	C376.263977,445.783325 376.357452,462.948059 376.439056,480.109955 
	C376.452423,482.918243 376.976593,485.746460 377.484894,488.525208 
	C378.480652,493.969086 382.248230,496.921356 387.744385,498.197632 
	C387.540985,498.616028 387.337555,499.034454 387.134125,499.452881 
	C372.743347,499.452881 358.352570,499.452881 343.850708,499.452881 
	C343.765930,499.049316 343.416077,498.382202 343.605988,498.142242 
	C348.480408,491.982880 347.760712,484.729462 347.756378,477.590729 
	C347.729828,433.601166 347.644104,389.611328 347.787811,345.622253 
	C347.821350,335.356659 347.497925,325.503662 337.127777,318.538788 
	C342.292603,315.969849 347.103973,315.589294 351.578552,314.205811 
	C357.938416,312.239349 364.319366,310.341125 370.678375,308.372070 
	C375.472961,306.887421 376.081909,307.300354 376.075043,312.489502 
	C376.052307,329.651398 375.973511,346.813324 375.971619,363.975220 
	C375.970764,371.806061 376.068054,379.637390 376.195831,387.467285 
	C376.221405,389.034180 375.717834,390.858398 378.132141,392.366821 
	C382.670135,387.580048 386.954102,382.291809 392.570282,378.409973 
	C406.938843,368.478485 422.421509,364.729401 439.433502,369.874786 
	C450.210815,373.134399 457.589478,380.075226 460.820343,391.536743 
z"/>
<path fill="#000000" opacity="1.000000" stroke="none" 
	d="
M315.684814,326.188904 
	C325.801788,330.229309 325.763367,330.205048 320.208435,339.003479 
	C317.225281,343.728485 314.400574,348.553558 311.655945,353.083313 
	C309.115906,352.942444 308.189026,351.407196 306.958344,350.355194 
	C295.222992,340.323486 281.780304,336.251770 266.578094,339.440033 
	C257.063141,341.435516 250.504883,347.079712 247.908661,356.809479 
	C245.459778,365.987061 249.528381,372.634094 256.108551,378.305939 
	C266.942993,387.644745 279.849121,393.619598 292.243256,400.419159 
	C300.718903,405.069031 309.253754,409.697784 316.272675,416.445343 
	C336.434143,435.827454 337.015167,478.758881 299.533356,494.378540 
	C282.491028,501.480560 264.729187,500.862244 246.960709,497.777893 
	C238.404831,496.292755 230.252777,493.308899 222.192795,490.094116 
	C218.443420,488.598724 217.569962,486.600586 219.484299,482.797943 
	C222.775162,476.260986 225.579712,469.479279 228.591064,462.801483 
	C230.743927,458.027466 231.802414,457.819763 235.556900,461.778809 
	C239.810013,466.263550 244.288620,470.410797 249.513611,473.805664 
	C260.298309,480.812775 272.068512,482.486023 284.470551,480.511810 
	C293.231873,479.117126 298.345581,473.975800 300.050293,465.217499 
	C302.393402,453.179810 299.119354,443.238953 288.901611,435.857941 
	C279.520264,429.081116 269.116913,424.204468 258.766357,419.218323 
	C252.901505,416.393158 247.256042,413.212982 241.862625,409.567627 
	C227.230789,399.678253 219.797668,386.228149 221.869766,368.337402 
	C224.237183,347.896729 233.342422,331.890289 253.158585,323.775665 
	C263.854736,319.395691 275.278381,319.295807 286.642029,319.909729 
	C296.504578,320.442566 306.086487,322.495148 315.684814,326.188904 
z"/>
<path fill="#000000" opacity="1.000000" stroke="none" 
	d="
M588.495117,493.603180 
	C563.351379,508.576172 527.204895,504.608551 506.411377,484.729919 
	C498.543884,477.208588 494.379059,467.520111 492.100494,457.189392 
	C488.496429,440.848602 489.036865,424.497833 493.474579,408.271423 
	C499.146088,387.533539 513.061951,375.163940 533.038452,369.007538 
	C544.529358,365.466187 556.275208,364.674652 568.018372,367.777161 
	C584.869019,372.229004 594.730774,383.849579 600.092773,399.834137 
	C602.497375,407.002441 603.386414,414.413269 603.185913,421.978027 
	C603.020447,428.219238 602.598022,428.830902 596.317749,428.889984 
	C574.829102,429.092072 553.339539,429.196716 531.850708,429.388184 
	C529.199036,429.411774 526.543762,429.672821 523.901611,429.938232 
	C521.816956,430.147675 520.578979,431.367798 520.382629,433.499329 
	C519.027527,448.214386 524.709656,469.993500 542.503540,477.458740 
	C552.811707,481.783447 563.400391,480.724091 573.869019,478.073059 
	C583.592346,475.610748 592.324890,471.351593 598.397705,462.880615 
	C598.736633,462.407806 599.383240,462.155609 599.827148,461.842682 
	C600.306335,462.184021 600.817444,462.416870 600.792664,462.549072 
	C598.721252,473.577759 599.495544,485.724670 588.495117,493.603180 
M551.500000,412.917145 
	C557.494202,412.882538 563.489563,412.764069 569.482117,412.847565 
	C572.631714,412.891449 573.863220,411.703400 573.940125,408.448364 
	C574.282837,393.930115 562.174561,380.840607 547.698425,380.320251 
	C534.801025,379.856720 522.905640,391.279449 521.056213,405.903839 
	C520.238586,412.369507 520.619507,412.856995 527.020447,412.895294 
	C534.846741,412.942078 542.673462,412.913239 551.500000,412.917145 
z"/>
<path fill="#000000" opacity="1.000000" stroke="none" 
	d="
M666.888611,222.697632 
	C660.043640,225.740509 657.012024,230.702515 657.072510,237.846451 
	C657.162781,248.511261 656.919800,259.178467 656.944946,269.844360 
	C656.959656,276.110901 655.956787,282.577484 660.630859,288.299286 
	C656.205811,290.193146 652.158264,289.682068 648.333313,289.766724 
	C632.842041,290.109711 617.341309,290.006134 601.847290,290.263672 
	C598.085632,290.326202 595.657288,288.849182 593.468262,285.944824 
	C585.747192,275.700592 577.851807,265.587860 570.020752,255.426514 
	C569.117554,254.254501 568.373657,252.911301 565.500244,251.922791 
	C565.868164,264.803223 562.731323,277.333191 569.612122,289.763367 
	C558.619995,289.763367 548.113770,289.763367 537.525269,289.763367 
	C537.452148,289.144257 537.165039,288.429443 537.373596,288.228210 
	C543.204529,282.600464 542.667969,275.385345 542.647034,268.186890 
	C542.575134,243.520889 542.660156,218.854477 542.667114,194.188217 
	C542.669434,186.050110 543.553345,177.630951 534.672485,171.709045 
	C541.110840,169.386887 546.680908,169.049194 552.217590,168.521591 
	C555.981873,168.162872 560.281189,165.284088 563.295837,167.510681 
	C566.503357,169.879730 564.288025,174.698288 564.380127,178.393082 
	C564.795044,195.038376 564.859619,211.692215 565.098267,228.342285 
	C565.128479,230.450302 564.699036,232.664169 565.934753,234.637299 
	C567.909302,235.155243 568.658936,233.543839 569.575012,232.528030 
	C574.819153,226.713211 580.080078,220.907562 585.125610,214.922058 
	C587.807800,211.740143 591.647644,208.447235 585.084229,203.098297 
	C598.773804,202.824203 610.653503,204.419434 623.381958,203.214554 
	C621.455200,206.810181 618.636230,207.448166 616.718323,209.139282 
	C606.828064,217.859909 597.630798,227.241333 589.166077,237.357635 
	C586.973083,239.978516 586.223877,242.222809 588.519165,245.288422 
	C597.210632,256.896820 606.046692,268.377625 615.970886,278.975891 
	C617.336731,280.434540 618.665588,281.986328 620.257935,283.160980 
	C622.828125,285.056885 625.177612,288.622406 628.786011,287.057800 
	C632.450439,285.468903 633.533997,281.287262 633.577026,277.724396 
	C633.822754,257.396729 633.792786,237.064285 633.668823,216.734604 
	C633.639038,211.846375 630.737671,208.083572 626.736450,204.387299 
	C635.830627,202.118134 644.846497,204.653931 652.877319,201.031494 
	C655.718811,203.766403 653.054565,207.691254 655.720337,210.157776 
	C657.988159,210.267578 659.046692,208.278442 660.577271,207.141785 
	C668.065674,201.580795 676.158081,199.098694 685.457214,201.724670 
	C688.899719,202.696808 690.694214,204.599228 690.032898,208.219101 
	C689.004456,213.848083 688.729248,219.676651 686.101135,225.619019 
	C679.950806,221.692841 673.851257,220.082458 666.888611,222.697632 
z"/>
<path fill="#000000" opacity="1.000000" stroke="none" 
	d="
M688.845215,409.000061 
	C688.860352,403.002075 688.743713,397.499664 688.929626,392.007507 
	C689.053528,388.346313 687.529480,386.560120 683.949402,387.063965 
	C678.973999,387.764191 677.571106,385.709625 677.843262,380.913940 
	C678.326355,372.403351 678.076660,372.268250 686.541809,370.954742 
	C689.580872,370.483154 689.782776,368.673584 689.763489,366.359772 
	C689.699524,358.691925 690.172180,351.091766 691.531311,343.504486 
	C695.466125,321.539490 714.094727,307.804016 736.136230,310.945557 
	C744.078918,312.077606 751.698120,314.496704 759.219421,317.215637 
	C760.751770,317.769562 762.960938,318.415100 762.100159,320.527039 
	C759.364014,327.240814 756.292542,333.817902 753.500305,340.110626 
	C751.619446,340.495178 751.150696,339.556915 750.597778,338.726227 
	C744.689941,329.851105 735.749451,327.351196 725.873352,327.550262 
	C720.042725,327.667816 717.120850,330.962982 717.290833,337.034210 
	C717.560669,346.668121 719.606384,356.192200 719.230774,365.898560 
	C719.109070,369.042145 721.843811,368.867828 723.967468,368.951508 
	C730.954346,369.226776 737.943298,369.507751 744.933960,369.600891 
	C748.614136,369.649933 749.895020,370.960999 748.277832,374.476349 
	C746.193604,379.007141 744.137573,383.550842 742.054688,388.082184 
	C740.826233,390.754333 738.722412,391.691895 735.914612,390.998077 
	C732.146484,390.066925 728.289734,390.412537 724.481506,390.091187 
	C720.319946,389.740051 718.969788,391.558746 719.006653,395.626160 
	C719.165283,413.118958 719.090332,430.613831 719.101624,448.107971 
	C719.105591,454.272614 718.927856,460.444244 719.159058,466.600403 
	C719.574585,477.666870 716.834167,489.484589 727.719421,499.016998 
	C711.104065,499.016998 695.943359,499.016998 680.846130,499.016998 
	C680.705078,498.352386 680.477234,497.856476 680.595154,497.752350 
	C691.213989,488.377899 687.852478,475.503540 688.421204,463.970886 
	C689.314819,445.851105 688.774963,427.660583 688.845215,409.000061 
z"/>
<path fill="#000000" opacity="1.000000" stroke="none" 
	d="
M656.337097,335.000214 
	C656.345520,373.819885 656.313843,412.139679 656.390564,450.459229 
	C656.407593,458.949585 657.032104,467.440826 656.970032,475.928650 
	C656.902710,485.138397 657.496887,493.823395 668.185120,497.976013 
	C667.902527,498.365143 667.619934,498.754242 667.337280,499.143372 
	C651.058228,499.143372 634.779175,499.143372 618.423767,499.143372 
	C618.396912,499.046997 618.133240,498.578033 618.249023,498.448639 
	C624.907104,491.007111 625.039001,482.008972 625.058899,472.688019 
	C625.155212,427.542999 625.470947,382.397736 625.927246,337.254791 
	C625.999207,330.131104 625.127869,323.675354 619.940247,318.375122 
	C619.534607,317.960724 619.484436,317.198486 619.038513,315.955139 
	C625.477783,314.292877 631.684570,312.699585 637.886292,311.086731 
	C642.387939,309.916016 646.894653,308.762390 651.377380,307.522339 
	C655.811340,306.295776 656.837769,307.060791 656.739807,311.527435 
	C656.571655,319.184326 656.467224,326.842560 656.337097,335.000214 
z"/>
<path fill="#000000" opacity="1.000000" stroke="none" 
	d="
M227.894867,256.929413 
	C228.277863,250.860199 224.825333,248.086060 220.158417,246.207687 
	C210.734207,242.414581 201.246872,238.759750 192.262695,233.968399 
	C182.736038,228.887787 174.478012,222.428925 171.737381,211.387054 
	C166.749664,191.291794 179.507080,173.580368 200.161072,170.699661 
	C214.515091,168.697647 227.948837,171.419540 241.136948,176.734451 
	C244.361786,178.034103 245.186279,179.653503 243.380081,182.788788 
	C241.471909,186.101166 239.760361,189.550720 238.258728,193.066696 
	C236.750259,196.598679 235.073822,197.456009 231.494751,195.227676 
	C224.025330,190.577148 215.898376,187.786255 206.890549,188.218628 
	C204.004913,188.357147 201.243713,188.907822 198.690079,190.171097 
	C193.918625,192.531555 190.652710,196.173889 190.349777,201.708160 
	C190.068527,206.846329 193.091431,210.252457 197.328751,212.342728 
	C202.844162,215.063477 208.560181,217.395660 214.265518,219.708481 
	C220.599167,222.275986 226.961014,224.771667 232.755081,228.449478 
	C245.216141,236.359131 251.046478,250.736603 247.753448,265.259369 
	C244.579895,279.255249 233.978195,288.143066 218.885544,290.339142 
	C202.957382,292.656830 188.153732,289.531494 173.790237,282.782196 
	C169.952148,280.978699 169.287506,279.029205 171.333420,275.453613 
	C173.811905,271.122040 176.022339,266.632416 178.235840,262.155365 
	C180.089081,258.406952 182.029861,258.243103 184.969879,261.243073 
	C192.355377,268.779175 201.335403,272.566589 212.002274,271.633270 
	C221.430267,270.808380 226.816132,265.874878 227.894867,256.929413 
z"/>
<path fill="#000000" opacity="1.000000" stroke="none" 
	d="
M285.284485,222.301987 
	C280.135193,225.555374 277.629913,223.250565 275.146057,218.992828 
	C269.705780,209.667404 268.853271,210.650192 279.248993,206.588242 
	C291.575195,201.772018 304.189941,199.557220 317.344940,202.761520 
	C331.963379,206.322296 341.495819,218.208847 342.367920,233.212646 
	C343.228668,248.021332 342.808990,262.832825 343.104858,277.640320 
	C343.183044,281.553284 342.506348,285.620941 346.221741,289.085602 
	C338.429688,289.085602 331.395752,289.279510 324.379730,289.008545 
	C320.537720,288.860138 322.583191,284.487396 320.361603,282.397827 
	C314.616852,286.233459 308.275452,288.886414 301.285828,289.769043 
	C292.659668,290.858337 284.273468,290.085693 276.555878,285.869568 
	C266.719238,280.495880 262.588379,271.899994 263.759979,260.892548 
	C264.786469,251.248199 270.333374,244.758331 279.050903,240.940475 
	C289.417694,236.400345 300.419891,236.504364 311.444244,236.672867 
	C313.890045,236.710220 317.329102,238.281494 318.582062,235.027969 
	C319.843811,231.751678 318.431244,228.451767 316.175476,225.784775 
	C311.180817,219.879715 304.192627,219.855453 297.368927,219.861176 
	C293.389343,219.864517 289.449829,220.809631 285.284485,222.301987 
M314.596283,251.973526 
	C307.579590,250.709290 300.689301,251.517258 294.026917,253.753647 
	C288.832642,255.497238 286.413147,259.930450 287.245728,265.042999 
	C287.980225,269.553131 291.479248,272.467407 296.783417,272.834747 
	C301.109436,273.134277 305.378052,272.901276 309.507782,271.306519 
	C312.679108,270.081909 315.491211,268.436890 317.370331,265.519287 
	C320.475372,260.698212 319.440613,253.626129 314.596283,251.973526 
z"/>
<path fill="#000000" opacity="1.000000" stroke="none" 
	d="
M387.215759,243.012177 
	C387.213928,253.000381 387.232300,262.491180 387.201202,271.981812 
	C387.182159,277.800629 386.593231,283.725342 391.289215,289.199280 
	C379.974579,290.523773 369.152435,290.302338 357.899536,289.016144 
	C365.386536,284.095123 364.284180,277.002472 364.176331,270.002380 
	C363.958313,255.852814 364.148926,241.697433 364.073517,227.544968 
	C364.028778,219.148117 365.313965,210.346466 357.077209,204.223267 
	C359.490936,202.091858 361.742493,202.894028 363.762054,202.833572 
	C369.584717,202.659271 375.444916,203.006500 381.227264,202.469498 
	C385.162018,202.104065 386.404877,203.357071 386.206299,207.034256 
	C386.120544,208.622238 385.835846,210.416962 387.502563,211.734238 
	C390.089905,211.358719 391.657898,209.218430 393.664185,207.860092 
	C407.344452,198.597946 424.974884,199.304718 434.934052,209.906128 
	C441.583405,216.984268 443.177826,226.058670 443.628448,235.330582 
	C444.298950,249.126297 444.029266,262.932343 443.474457,276.726227 
	C443.283783,281.467834 445.226227,285.308807 449.284973,289.662109 
	C436.162781,289.662109 424.562988,289.662109 412.949066,289.662109 
	C412.890350,289.294159 412.685303,288.794739 412.811615,288.688202 
	C419.524689,283.027069 420.278687,275.444366 419.932831,267.385864 
	C419.419403,255.421936 421.617584,243.462173 419.927917,231.476059 
	C418.707886,222.821732 413.516724,218.452042 404.854370,219.389542 
	C399.791504,219.937500 395.221741,221.947159 391.101929,224.906921 
	C388.535370,226.750824 387.018219,229.149567 387.188324,232.526337 
	C387.355621,235.847809 387.218597,239.184616 387.215759,243.012177 
z"/>
<path fill="#000000" opacity="1.000000" stroke="none" 
	d="
M521.766602,274.440308 
	C511.489319,291.672333 495.408875,294.450195 477.794434,292.914062 
	C469.227753,292.166962 460.845032,290.112152 452.532166,285.909241 
	C456.364105,280.752136 458.875793,275.419434 460.903198,269.825958 
	C461.928284,266.997925 463.948456,267.919403 465.746979,269.122772 
	C472.996063,273.973083 481.083527,275.153259 489.587433,274.787109 
	C492.336334,274.668762 494.846619,273.933319 497.213867,272.694366 
	C503.116302,269.605133 503.573975,262.896667 498.153046,258.953644 
	C493.873993,255.841141 488.604370,255.177460 483.794830,253.384628 
	C478.010590,251.228470 472.225220,249.136047 467.401611,245.107819 
	C454.219025,234.098877 455.987030,213.685211 471.166504,205.613190 
	C487.379730,196.991440 503.634979,199.454254 519.662598,206.645035 
	C521.625732,207.525787 521.946228,208.796280 521.018555,210.648804 
	C519.082825,214.514328 517.123901,218.372711 515.346802,222.311722 
	C514.098083,225.079391 512.647827,225.654541 509.983246,223.886307 
	C504.454865,220.217529 498.315948,218.344528 491.627441,218.343536 
	C489.415802,218.343201 487.315186,218.784012 485.300476,219.587021 
	C482.523224,220.693954 480.362762,222.455780 480.163422,225.711426 
	C479.949554,229.203812 482.334625,230.841904 485.137085,231.741730 
	C490.830750,233.569901 496.669220,234.956253 502.333344,236.865036 
	C513.406860,240.596786 521.638428,247.084137 523.796204,259.462402 
	C524.695374,264.620789 523.711182,269.367706 521.766602,274.440308 
z"/>
<path fill="#000000" opacity="1.000000" stroke="none" 
	d="
M753.102173,191.082367 
	C760.531799,190.160355 765.087524,185.013412 770.912109,180.153000 
	C771.863159,185.912369 771.241089,190.673447 771.255554,195.385925 
	C771.277710,202.644531 771.260071,202.689255 778.343933,202.745010 
	C779.842834,202.756821 781.341919,202.757095 782.840881,202.756363 
	C791.098694,202.752335 791.098694,202.751648 791.099731,210.803375 
	C791.100830,219.378494 791.100708,219.405945 782.508789,219.373672 
	C768.347961,219.320511 769.997498,218.732330 769.943848,232.119919 
	C769.904419,241.945068 769.831299,251.776825 770.130005,261.594788 
	C770.466125,272.644440 774.884766,276.349579 785.714783,274.700653 
	C788.992126,274.201660 790.430054,274.749847 790.439697,278.208801 
	C790.444763,280.022095 790.610413,281.942383 791.221252,283.626617 
	C793.110413,288.835602 790.466919,290.631927 785.915466,291.118622 
	C778.626526,291.898010 771.336426,292.697052 764.021301,291.319122 
	C755.048279,289.628967 748.861877,283.212006 747.716797,274.114838 
	C745.774658,258.685242 747.136902,243.177292 746.775513,227.708740 
	C746.561584,218.552841 746.652100,218.532333 737.620850,218.333725 
	C735.538330,218.287933 733.279968,218.914658 731.430542,217.376282 
	C732.040649,209.721313 735.396057,204.995468 741.665039,203.298203 
	C744.100403,202.638824 745.184753,201.165848 744.577026,198.942825 
	C743.040344,193.322083 745.987183,191.783722 750.758118,191.608887 
	C751.411865,191.584915 752.057312,191.333893 753.102173,191.082367 
z"/>
<path fill="#000000" opacity="1.000000" stroke="none" 
	d="
M825.886475,240.935425 
	C825.479004,253.060486 825.030640,264.694153 825.586670,276.338684 
	C825.810913,281.036316 826.191345,285.651123 830.142212,289.623352 
	C819.389648,291.313416 808.804260,291.619202 796.668335,289.744354 
	C803.780212,283.062836 801.852478,275.493713 801.925781,268.366333 
	C802.073059,254.059967 801.987793,239.750839 801.941956,225.443054 
	C801.920837,218.859665 802.937195,212.073090 798.393555,206.714951 
	C799.193054,204.909698 800.412292,204.870911 801.566284,204.826859 
	C807.753845,204.590698 813.727356,203.157547 819.700012,201.683762 
	C825.680908,200.207962 826.079285,200.514343 826.057678,206.507065 
	C826.016846,217.819901 825.946716,229.132645 825.886475,240.935425 
z"/>
<path fill="#000000" opacity="1.000000" stroke="none" 
	d="
M704.050659,204.047089 
	C710.508606,202.770813 716.324829,200.889832 721.661194,198.053833 
	C724.026062,199.364105 723.309326,201.444397 723.281616,203.107788 
	C722.865784,228.059296 724.800903,253.009491 723.359131,277.955383 
	C723.131287,281.898041 724.064941,285.430634 726.418030,289.534851 
	C715.796021,289.534851 705.875854,289.534851 694.920044,289.534851 
	C704.106201,280.338013 700.091125,269.246307 700.643860,258.981079 
	C701.206787,248.526459 700.845581,238.018738 700.783752,227.534897 
	C700.738220,219.826813 702.324585,211.608139 693.595581,206.237320 
	C697.413452,204.137238 700.758301,205.248856 704.050659,204.047089 
z"/>
<path fill="#000000" opacity="1.000000" stroke="none" 
	d="
M848.973511,336.876801 
	C830.019287,337.251953 811.564514,335.617035 793.102112,336.753998 
	C791.954834,336.824677 790.786316,336.459930 789.628357,336.465271 
	C786.976990,336.477539 785.607422,335.435211 785.781067,332.579773 
	C785.945679,329.873138 787.289795,328.739563 789.916504,328.739349 
	C812.878662,328.737671 835.840881,328.716614 858.803040,328.688416 
	C861.286987,328.685364 863.010315,329.426727 863.087952,332.310455 
	C863.166077,335.213104 861.778076,336.665649 858.949402,336.746307 
	C855.790527,336.836395 852.629150,336.837769 848.973511,336.876801 
z"/>
<path fill="#000000" opacity="1.000000" stroke="none" 
	d="
M823.931213,171.006317 
	C828.347900,176.019394 829.146118,181.253937 826.476624,186.983521 
	C824.398010,191.444931 820.837219,193.833298 815.993469,194.298401 
	C809.939392,194.879745 804.460571,192.099106 802.169128,187.373138 
	C799.796631,182.479797 800.778198,176.538345 804.696106,172.076385 
	C808.144165,168.149658 814.694702,166.548508 819.805176,168.520935 
	C821.170898,169.048050 822.376221,169.990433 823.931213,171.006317 
z"/>
<path fill="#000000" opacity="1.000000" stroke="none" 
	d="
M726.277466,180.074280 
	C725.644104,188.550797 721.233643,193.606262 714.405762,194.107086 
	C708.160095,194.565216 701.323242,189.902222 699.841736,184.173904 
	C697.887451,176.617599 702.538330,169.563919 710.554321,167.926727 
	C718.660217,166.271179 724.927307,170.943039 726.277466,180.074280 
z"/>
<path fill="#000000" opacity="1.000000" stroke="none" 
	d="
M176.584869,336.479797 
	C169.795883,336.496490 163.471115,336.681030 157.157425,336.493286 
	C154.913544,336.426575 151.276718,338.111938 151.179092,333.534973 
	C151.090485,329.381165 153.727509,328.892670 157.175293,328.975739 
	C170.475357,329.296143 183.779694,329.458740 197.083221,329.610229 
	C205.567184,329.706879 214.052826,329.651794 222.537018,329.734955 
	C224.116837,329.750427 225.882568,329.132690 227.452713,330.834930 
	C226.836166,334.413483 225.055435,336.415192 220.942825,336.561646 
	C206.308670,337.082672 191.682526,337.120239 176.584869,336.479797 
z"/>
</svg>